<svg width="200" height="200" viewBox="0 0 200 200" fill="none" xmlns="http://www.w3.org/2000/svg">
<path d="M100 188.392C97.5198 188.389 95.0814 187.752 92.9167 186.542L64.8333 170.942C50.8712 163.179 39.237 151.827 31.1349 138.059C23.0327 124.291 18.7569 108.608 18.75 92.6333V49.3333C18.7496 45.7302 20.0854 42.2549 22.499 39.5796C24.9126 36.9044 28.2325 35.2192 31.8167 34.85C42.9902 33.6657 53.9871 31.1793 64.5833 27.4417C74.2986 24.0074 83.6184 19.5431 92.3833 14.125C94.6761 12.7219 97.3119 11.9793 100 11.9793C102.688 11.9793 105.324 12.7219 107.617 14.125C116.382 19.5416 125.702 24.0058 135.417 27.4417C146.013 31.1793 157.01 33.6657 168.183 34.85C171.767 35.2192 175.087 36.9044 177.501 39.5796C179.915 42.2549 181.25 45.7302 181.25 49.3333V92.6333C181.243 108.608 176.967 124.291 168.865 138.059C160.763 151.827 149.129 163.179 135.167 170.942L107.083 186.55C104.918 187.758 102.48 188.392 100 188.392ZM100 24.475C99.6333 24.4717 99.2728 24.5698 98.9583 24.7583C89.4332 30.6455 79.3063 35.4981 68.75 39.2333C57.2355 43.2974 45.2846 45.9991 33.1417 47.2833C32.6259 47.3272 32.1453 47.563 31.795 47.9441C31.4447 48.3253 31.2502 48.824 31.25 49.3417V92.6417C31.2545 106.388 34.9326 119.883 41.9038 131.73C48.875 143.577 58.8858 153.346 70.9 160.025L98.9833 175.625C99.2912 175.798 99.6385 175.889 99.9917 175.889C100.345 175.889 100.692 175.798 101 175.625L129.1 160.025C141.114 153.346 151.125 143.577 158.096 131.73C165.067 119.883 168.746 106.388 168.75 92.6417V49.3333C168.75 48.8157 168.555 48.3169 168.205 47.9358C167.855 47.5546 167.374 47.3188 166.858 47.275C154.715 45.9907 142.765 43.289 131.25 39.225C120.694 35.495 110.568 30.6481 101.042 24.7667C100.729 24.5736 100.368 24.4725 100 24.475Z" fill="black"/>
<path d="M95.8334 118.75C94.3023 118.751 92.8245 118.188 91.6834 117.167L72.9334 100.5C71.7708 99.3799 71.0867 97.8534 71.0244 96.2401C70.9622 94.6269 71.5266 93.0522 72.5994 91.8458C73.6722 90.6394 75.1702 89.895 76.7797 89.7684C78.3891 89.6418 79.9851 90.1429 81.2334 91.1667L95.4334 103.783L122.525 74.8917C123.083 74.2791 123.757 73.7835 124.508 73.4337C125.259 73.084 126.072 72.8871 126.9 72.8544C127.728 72.8217 128.554 72.954 129.33 73.2435C130.107 73.533 130.817 73.974 131.422 74.5407C132.026 75.1075 132.512 75.7887 132.85 76.5449C133.189 77.301 133.374 78.1169 133.394 78.9452C133.415 79.7734 133.27 80.5975 132.97 81.3694C132.669 82.1414 132.217 82.8458 131.642 83.4417L100.392 116.775C99.8082 117.4 99.1023 117.897 98.3181 118.237C97.5339 118.577 96.6881 118.751 95.8334 118.75Z" fill="black"/>
</svg>
