<svg width="512" height="512" viewBox="0 0 512 512" fill="none" xmlns="http://www.w3.org/2000/svg">
<g clip-path="url(#clip0_11_30)">
<path d="M50.3711 146.709L51.8711 145.209V57.1315C51.8711 54.6249 54.0467 52.4505 56.9102 52.4505H154.974L156.474 50.9505V44.7699L154.974 43.2699H56.9102C48.9396 43.2699 42.3357 49.3977 42.3357 57.1315V145.209L43.8357 146.709H50.3711ZM359.404 50.9505L360.904 52.4505H465.503C468.366 52.4505 470.539 54.6238 470.539 57.1315V145.209L472.039 146.709H478.578L480.078 145.209V57.1315C480.078 49.3974 473.47 43.2699 465.503 43.2699H360.904L359.404 44.7699V50.9505ZM51.8711 381.624L50.3711 380.124H43.8357L42.3357 381.624V468.156C42.3357 475.891 48.9397 482.018 56.9102 482.018H154.974L156.474 480.518V474.339L154.974 472.839H56.9102C54.047 472.839 51.8711 470.664 51.8711 468.156V381.624ZM472.039 380.124L470.539 381.624V468.156C470.539 470.665 468.365 472.839 465.503 472.839H360.904L359.404 474.339V480.518L360.904 482.018H465.503C473.47 482.018 480.078 475.892 480.078 468.156V381.624L478.578 380.124H472.039ZM490.706 -77.8771L489.206 -79.3771H482.666L481.166 -77.8771V-52.5992L482.666 -51.0992H489.206L490.706 -52.5992V-77.8771ZM473.994 -74.7171L472.494 -76.2171H465.959L464.459 -74.7171V-52.5992L465.959 -51.0992H472.494L473.994 -52.5992V-74.7171ZM457.286 -68.3979L455.786 -69.8979H449.247L447.747 -68.3979V-52.5992L449.247 -51.0992H455.786L457.286 -52.5992V-68.3979ZM440.575 -62.0784L439.075 -63.5784H432.536L431.036 -62.0784V-52.5992L432.536 -51.0992H439.075L440.575 -52.5992V-62.0784Z" fill="#1B1E27" stroke="black" stroke-width="3" stroke-linejoin="bevel"/>
<path fill-rule="evenodd" clip-rule="evenodd" d="M90.7415 85.8768C90.0168 86.6296 89.4246 113.472 89.4246 145.527V203.807H146.702H203.98V144.155V84.5049H148.019C117.241 84.5049 91.4662 85.122 90.7415 85.8768ZM221.759 101.988V119.472H229.656H237.558V135.927V152.383H245.459H253.361V144.155V135.927H262.248H271.135V144.155V152.383H279.037H286.938V161.64V170.896H294.836H302.737V153.409V135.927H294.836H286.938V127.7V119.472H294.836H302.737V101.988V84.5049H262.248H221.759V101.988ZM320.515 144.155V203.807H376.804H433.096V144.155V84.5049H376.804H320.515V144.155ZM188.181 144.155V187.35H146.702H105.224V145.527C105.224 122.523 105.816 103.085 106.541 102.332C107.265 101.577 125.93 100.96 148.019 100.96H188.181V144.155ZM270.753 110.73L271.363 119.472H262.358H253.361V111.588C253.361 107.25 253.993 103.042 254.769 102.233C255.546 101.425 259.323 101.04 263.164 101.376C269.859 101.964 270.175 102.348 270.753 110.73ZM417.293 144.155V187.35H376.804H336.314V144.155V100.96H376.804H417.293V144.155ZM123.002 145.183V170.896H147.692H172.378V145.183V119.472H147.692H123.002V145.183ZM352.117 145.183V170.896H376.804H401.494V145.183V119.472H376.804H352.117V145.183ZM221.759 222.316V290.197H197.068H172.378V298.423V306.65H197.068H221.759V314.877V323.107H229.656H237.558V314.877V306.65H245.459H269.575V298.423V290.197H245.459H237.558V272.71V255.227H253.361H269.16V247V238.773H294.836H320.515V255.227V271.684H336.314H352.117V280.94V290.197H327.427H302.737V281.966V273.74H294.836H286.938V281.966V290.197H294.836H302.737V307.68V325.163H294.836H286.938V315.907V306.65H279.147H270.149V324.133L253.853 324.732L237.558 325.33V333.473C237.558 341.603 237.543 341.617 229.656 341.617H221.759V349.847V358.074H229.656H237.558V375.557V393.04H229.656H221.759V417.724V442.404H245.459H269.16V434.178V425.951H261.258H253.361V417.724V409.497H245.459H237.558V401.267V393.04H253.247H268.932L269.542 384.299L270.149 375.557L285.809 375.084V393.04H302.737V375.084L311.131 375L352.117 374.444V383.742V393.04H336.314H320.515V401.267V409.497H328.413H336.314V417.724V425.784L352.61 426.382L368.902 426.98V434.696V442.408H377.447L385.993 442.404L385.349 425.947L384.705 409.487L408.899 409.49L433.096 409.497V401.267V393.04H417.293H401.494V383.784V374.527H409.395H417.293V366.301C417.293 358.095 417.275 358.074 409.506 358.074C401.759 358.074 401.718 358.115 401.111 366.815C400.512 375.47 400.431 375.557 392.923 375.557H385.341L385.021 358.589L384.705 341.617H393.099H401.494V324.133V306.65H409.395H417.293V298.423V290.197H409.395H401.494V298.423V306.65L393.099 306.654L384.705 306.661L385.349 290.2L385.993 273.74H376.954H367.916V264.483V255.227H376.804H385.691V263.457V271.684H393.592H401.494V263.457V255.227H393.592H385.691V247V238.773H376.804H367.916V230.546V222.316H327.427H286.938V214.208C286.938 206.137 286.894 206.096 278.544 205.466L270.149 204.833L269.575 187.865L269.002 170.896H261.181H253.361V188.379V205.863H245.459H237.558V180.149V154.439H229.656H221.759V222.316ZM237.558 358.074V349.847V341.617H245.459H253.361V349.847V358.074H245.459H237.558ZM352.117 290.197H361.004H369.892V298.423V306.65H361.004H352.117V298.423V290.197ZM336.314 425.951H328.413H320.515V434.178V442.404H328.413H336.314V434.098V425.951ZM286.938 195.577V203.807H294.836H302.737V195.577V187.35H294.836H286.938V195.577ZM89.4246 238.773V255.227H97.326H105.224V247V238.773H122.012H138.801V264.483V290.197H122.012H105.224V281.966V273.74H97.326H89.4246V290.197V306.65H121.935H154.442L155.02 289.682L155.59 272.71L179.787 272.133L203.98 271.555V263.391V255.227H188.181H172.378V247V238.773H188.181H203.98V230.546V222.316H188.181H172.378V230.546V238.773H155.59H138.801V230.546V222.316H114.115H89.4246V238.773ZM401.494 230.546V238.773H409.395H417.293V255.227V271.684H425.194H433.096V247V222.316H417.293H401.494V230.546ZM352.117 247V255.227H344.216H336.314V247V238.773H344.216H352.117V247ZM336.314 332.36V341.617H327.427H318.54V333.734C318.54 329.397 319.132 325.229 319.857 324.478C320.578 323.723 324.58 323.107 328.744 323.107H336.314V332.36ZM336.314 341.617H353.103H369.892V349.847V358.074H353.103H336.314V349.847V341.617ZM89.4246 383.784V442.404H146.702H203.98V383.784V325.163H146.702H89.4246V383.784ZM417.668 332.875C418.249 340.17 418.683 340.625 425.687 341.227L433.096 341.867V333.515V325.163H425.077H417.054L417.668 332.875ZM188.181 383.784V425.951H146.702H105.224V383.784V341.617H146.702H188.181V383.784ZM302.737 349.847V358.074H294.836H286.938V349.847V341.617H294.836H302.737V349.847ZM123.002 383.784V409.497H147.692H172.378V383.784V358.074H147.692H123.002V383.784ZM286.938 417.724V442.404H294.836H302.737V417.724V409.497H294.836H286.938V417.724ZM418.613 427.321C417.889 428.076 417.293 431.777 417.293 435.552C417.293 442.178 417.558 442.404 425.194 442.404H433.096V434.178C433.096 426.226 432.875 425.951 426.511 425.951C422.892 425.951 419.334 426.566 418.613 427.321ZM112 249H133V278H112V249ZM313 247H279V260H313V247ZM423 278H433V312H423V278ZM433 347H426V386H433V347Z" fill="#1B1E27"/>
</g>
<defs>
<clipPath id="clip0_11_30">
<rect width="512" height="512" fill="white"/>
</clipPath>
</defs>
</svg>
