<svg width="200" height="200" viewBox="0 0 200 200" fill="none" xmlns="http://www.w3.org/2000/svg">
<path d="M158.594 129.688C147.015 129.688 136.812 135.383 130.404 144.045L74.9961 115.673C75.916 112.538 76.5625 109.288 76.5625 105.859C76.5625 101.209 75.609 96.7871 73.9617 92.7203L131.948 57.8266C138.401 65.4 147.886 70.3125 158.594 70.3125C177.98 70.3125 193.75 54.5426 193.75 35.1562C193.75 15.7699 177.98 0 158.594 0C139.207 0 123.438 15.7699 123.438 35.1562C123.438 39.6238 124.357 43.8617 125.884 47.7961L67.7246 82.7922C61.277 75.4437 51.9285 70.7031 41.4062 70.7031C22.0199 70.7031 6.25 86.473 6.25 105.859C6.25 125.246 22.0199 141.016 41.4062 141.016C53.1758 141.016 63.5512 135.153 69.9355 126.248L125.161 154.527C124.143 157.811 123.438 161.23 123.438 164.844C123.438 184.23 139.207 200 158.594 200C177.98 200 193.75 184.23 193.75 164.844C193.75 145.457 177.98 129.688 158.594 129.688Z" fill="black"/>
</svg>
