<svg width="550" height="550" viewBox="0 0 550 550" fill="none" xmlns="http://www.w3.org/2000/svg">
<g clip-path="url(#clip0_10_2)">
<path d="M137.55 511.482H257.272H462.242C487.234 511.482 500.988 482.451 485.15 463.131C477.965 454.366 476.417 442.27 481.166 431.981L494.344 403.427C515.533 357.513 489.218 303.728 439.947 292.244L437.828 291.751C400.866 283.136 374.717 250.208 374.717 212.278V194.223C374.717 145.527 341.015 103.304 293.508 92.4807L260.442 84.9477C202.015 71.6369 145.377 113.246 140.655 172.948L139.867 182.915C138.276 203.018 128.607 221.619 113.063 234.478L65.6543 273.696C55.7258 281.91 55.372 297.004 64.9048 305.673C74.6381 314.525 74.0295 330.009 63.6312 338.068L36.5871 359.034C15.7587 375.181 11.066 404.721 25.8663 426.519L53.2307 466.824C72.1943 494.756 103.775 511.482 137.55 511.482ZM115.954 72.0458L121.269 85.6695C121.593 86.4983 121.426 87.428 120.836 88.0794L113.339 96.3655C111.726 98.1482 113.577 100.941 115.89 100.214L126.839 96.7763C127.638 96.5253 128.52 96.7134 129.158 97.271L138.698 105.604C140.492 107.171 143.202 105.509 142.553 103.241L138.96 90.6873C138.749 89.9501 138.909 89.1643 139.388 88.5769L145.934 80.5565C147.409 78.7497 145.575 76.1038 143.325 76.7912L133.554 79.7749C132.769 80.0145 131.907 79.833 131.275 79.295L119.714 69.4516C117.823 67.8418 115.058 69.7493 115.954 72.0458ZM78.8027 155.784L79.2888 163.93C79.3185 164.425 79.0702 164.89 78.6456 165.135L73.2439 168.249C72.0819 168.919 72.5857 170.719 73.9385 170.73L80.3416 170.782C80.8091 170.786 81.2451 171.037 81.4884 171.443L85.1254 177.503C85.809 178.643 87.5327 178.225 87.5771 176.909L87.822 169.628C87.8365 169.2 88.0558 168.81 88.4111 168.58L93.2624 165.444C94.3553 164.738 93.8353 163.018 92.5225 162.997L86.8223 162.906C86.3647 162.899 85.9383 162.655 85.695 162.261L81.2438 155.051C80.5158 153.872 78.7208 154.411 78.8027 155.784ZM503.807 231.959L507.929 239.002C508.178 239.431 508.169 239.958 507.899 240.368L504.493 245.59C503.76 246.713 505.025 248.09 506.235 247.487L511.969 244.636C512.387 244.427 512.89 244.455 513.289 244.706L519.277 248.464C520.401 249.17 521.75 248.019 521.193 246.825L518.117 240.22C517.935 239.833 517.955 239.386 518.168 239.021L521.074 234.029C521.728 232.903 520.487 231.605 519.306 232.181L514.182 234.679C513.772 234.881 513.28 234.855 512.884 234.613L505.654 230.201C504.471 229.478 503.113 230.771 503.807 231.959Z" fill="#E7E8FF"/>
<path d="M208.104 59.6205C208.104 48.8094 216.867 40.0453 227.678 40.0453H447.9C458.711 40.0453 467.474 48.8094 467.474 59.6205V490.58C467.474 501.391 458.711 510.156 447.9 510.156H227.678C216.867 510.156 208.104 501.391 208.104 490.58V59.6205Z" fill="white"/>
<path fill-rule="evenodd" clip-rule="evenodd" d="M206.472 59.6206C206.472 47.9085 215.967 38.4141 227.678 38.4141H447.9C459.611 38.4141 469.106 47.9085 469.106 59.6206V490.58C469.106 502.293 459.611 511.788 447.9 511.788H227.678C215.967 511.788 206.472 502.293 206.472 490.58V59.6206ZM227.678 41.6767C217.769 41.6767 209.735 49.7103 209.735 59.6206V490.58C209.735 500.491 217.769 508.525 227.678 508.525H447.9C457.809 508.525 465.843 500.491 465.843 490.58V59.6206C465.843 49.7103 457.809 41.6767 447.9 41.6767H227.678Z" fill="#1B1E27"/>
<path d="M286.17 55.7245L277.809 40.0446H397.767L387.93 56.4408C384.982 61.3541 379.67 64.3606 373.941 64.3606H300.564C294.54 64.3606 289.005 61.0403 286.17 55.7245Z" fill="#1B1E27"/>
<path d="M464.292 49.7709H209.629C218.059 41.3413 226.111 39.7743 229.082 40.0445H444.84C455.215 40.0445 462.13 46.5287 464.292 49.7709ZM464.173 500.938H211.409C220.169 509.503 225.232 511.097 228.32 510.822H447.26C458.042 510.822 461.925 504.233 464.173 500.938ZM230.727 98.2323C230.727 95.5295 232.918 93.3384 235.622 93.3384H318.347C321.052 93.3384 323.242 95.5295 323.242 98.2323V98.357C323.242 101.06 321.052 103.251 318.347 103.251H235.622C232.918 103.251 230.727 101.06 230.727 98.357V98.2323ZM309.241 466.169C309.241 463.467 311.432 461.276 314.136 461.276H364.705C367.407 461.276 369.598 463.467 369.598 466.169C369.598 468.871 367.407 471.062 364.705 471.062H314.136C311.432 471.062 309.241 468.871 309.241 466.169Z" fill="#1B1E27"/>
<path fill-rule="evenodd" clip-rule="evenodd" d="M235.834 131.76C234.032 131.76 232.571 133.22 232.571 135.022V181.513H229.31V135.022C229.31 131.418 232.23 128.497 235.834 128.497H284.773V131.76H235.834ZM439.743 131.76H387.543V128.497H439.743C443.346 128.497 446.268 131.418 446.268 135.022V181.513H443.005V135.022C443.005 133.22 441.545 131.76 439.743 131.76ZM232.571 306.304V351.98C232.571 353.782 234.032 355.243 235.834 355.243H284.773V358.505H235.834C232.23 358.505 229.31 355.584 229.31 351.98V306.304H232.571ZM443.005 351.98V306.304H446.268V351.98C446.268 355.584 443.346 358.505 439.743 358.505H387.543V355.243H439.743C441.545 355.243 443.005 353.782 443.005 351.98ZM451.572 63.7584V77.1012H448.309V63.7584H451.572ZM443.232 65.4264V77.1012H439.971V65.4264H443.232ZM434.894 68.762V77.1012H431.631V68.762H434.894ZM426.554 72.0977V77.1012H423.291V72.0977H426.554Z" fill="#1B1E27"/>
<path fill-rule="evenodd" clip-rule="evenodd" d="M252.804 150.034C252.443 150.431 252.147 164.578 252.147 181.472V212.188H280.694H309.241V180.749V149.311H281.351C266.011 149.311 253.165 149.637 252.804 150.034ZM318.102 158.526V167.74H322.038H325.976V176.413V185.086H329.914H333.852V180.749V176.413H338.281H342.71V180.749V185.086H346.648H350.586V189.964V194.843H354.523H358.461V185.627V176.413H354.523H350.586V172.077V167.74H354.523H358.461V158.526V149.311H338.281H318.102V158.526ZM367.321 180.749V212.188H395.375H423.43V180.749V149.311H395.375H367.321V180.749ZM301.367 180.749V203.515H280.694H260.022V181.472C260.022 169.348 260.317 159.104 260.678 158.707C261.039 158.309 270.341 157.984 281.351 157.984H301.367V180.749ZM342.52 163.133L342.824 167.74H338.336H333.852V163.585C333.852 161.299 334.167 159.081 334.554 158.655C334.941 158.229 336.824 158.026 338.738 158.203C342.074 158.513 342.232 158.716 342.52 163.133ZM415.554 180.749V203.515H395.375H375.195V180.749V157.984H395.375H415.554V180.749ZM268.882 181.291V194.843H281.187H293.491V181.291V167.74H281.187H268.882V181.291ZM383.071 181.291V194.843H395.375H407.68V181.291V167.74H395.375H383.071V181.291ZM318.102 221.943V257.719H305.796H293.491V262.055V266.391H305.796H318.102V270.726V275.064H322.038H325.976V270.726V266.391H329.914H341.933V262.055V257.719H329.914H325.976V248.503V239.288H333.852H341.726V234.953V230.617H354.523H367.321V239.288V247.962H375.195H383.071V252.84V257.719H370.766H358.461V253.381V249.045H354.523H350.586V253.381V257.719H354.523H358.461V266.933V276.148H354.523H350.586V271.269V266.391H346.703C342.842 266.391 342.219 266.391 342.219 266.391V275.605L334.097 275.92L325.976 276.236V280.527C325.976 284.812 325.968 284.819 322.038 284.819H318.102V289.157V293.493H322.038H325.976V302.707V311.921H322.038H318.102V324.931V337.938H329.914H341.726V333.602V329.267H337.788H333.852V324.931V320.595H329.914H325.976V316.257V311.921H333.795H341.612L341.917 307.314L342.219 302.707L350.024 302.458V311.921H358.461V302.458L362.644 302.414L383.071 302.12V307.021V311.921H375.195H367.321V316.257V320.595H371.257H375.195V324.931V329.267H371.257H367.321V333.602V337.938H371.257H375.195V333.56V329.179L383.317 329.494L391.437 329.809V333.876V337.94H395.696L399.954 337.938L399.634 329.265L399.313 320.589L411.371 320.591L423.43 320.595V316.257V311.921H415.554H407.68V307.043V302.164H411.618H415.554V297.829C415.554 293.504 415.545 293.493 411.673 293.493C407.812 293.493 407.792 293.515 407.489 298.1C407.191 302.661 407.15 302.707 403.408 302.707H399.63L399.47 293.764L399.313 284.819H403.496H407.68V275.605V266.391H411.618H415.554V262.055V257.719H411.618H407.68V262.055V266.391L403.496 266.392L399.313 266.396L399.634 257.721L399.954 249.045H395.45H390.945V244.167V239.288H395.375H399.804V243.626V247.962H403.742H407.68V243.626V239.288H403.742H399.804V234.953V230.617H395.375H390.945V226.281V221.943H370.766H350.586V217.67C350.586 213.416 350.564 213.394 346.403 213.063L342.219 212.729L341.933 203.786L341.647 194.843H337.749H333.852V204.057V213.272H329.914H325.976V199.72V186.169H322.038H318.102V221.943ZM350.586 207.85V212.188H354.523H358.461V207.85V203.515H354.523H350.586V207.85ZM252.147 230.617V239.288H256.085H260.022V234.953V230.617H268.389H276.756V244.167V257.719H268.389H260.022V253.381V249.045H256.085H252.147V257.719V266.391H268.35H284.552L284.839 257.448L285.124 248.503L297.183 248.198L309.241 247.894V243.591V239.288H301.367H293.491V234.953V230.617H301.367H309.241V226.281V221.943H301.367H293.491V226.281V230.617H285.124H276.756V226.281V221.943H264.453H252.147V230.617ZM407.68 226.281V230.617H411.618H415.554V239.288V247.962H419.492H423.43V234.953V221.943H415.554H407.68V226.281ZM383.071 234.953V239.288H379.133H375.195V234.953V230.617H379.133H383.071V234.953ZM391.93 262.055V266.391H387.501H383.071V262.055V257.719H387.501H391.93V262.055ZM375.195 279.941V284.819H383.563H391.93V289.157V293.493H383.563H375.195V289.157V284.819H370.766H366.337V280.665C366.337 278.379 366.632 276.182 366.993 275.786C367.352 275.389 369.347 275.064 371.422 275.064H375.195V279.941ZM252.147 307.043V337.938H280.694H309.241V307.043V276.148H280.694H252.147V307.043ZM415.741 280.212C416.031 284.057 416.247 284.297 419.738 284.614L423.43 284.951V280.549V276.148H419.434H415.435L415.741 280.212ZM301.367 307.043V329.267H280.694H260.022V307.043V284.819H280.694H301.367V307.043ZM333.852 289.157V293.493H329.914H325.976V289.157V284.819H329.914H333.852V289.157ZM358.461 289.157V293.493H354.523H350.586V289.157V284.819H354.523H358.461V289.157ZM268.882 307.043V320.595H281.187H293.491V307.043V293.493H281.187H268.882V307.043ZM350.586 324.931V337.938H354.523H358.461V324.931V320.595H354.523H350.586V324.931ZM416.212 329.989C415.851 330.387 415.554 332.337 415.554 334.327C415.554 337.819 415.686 337.938 419.492 337.938H423.43V333.602C423.43 329.411 423.32 329.267 420.149 329.267C418.345 329.267 416.572 329.591 416.212 329.989Z" fill="#1B1E27"/>
<path d="M498.421 363.994C521.321 383.671 497.325 469.634 482.466 510.156H459.001C459.001 418.863 469.795 339.396 498.421 363.994Z" fill="white"/>
<path fill-rule="evenodd" clip-rule="evenodd" d="M488.506 360.791C491.113 360.794 494.122 362.039 497.568 365C502.869 369.554 505.633 378.141 506.367 389.519C507.096 400.831 505.798 414.57 503.309 429.031C498.403 457.536 488.919 488.592 481.549 508.832H460.315C460.368 463.709 463.074 421.69 469.258 393.906C472.393 379.817 476.37 369.655 481.144 364.522C483.49 361.997 485.934 360.789 488.506 360.791ZM466.693 393.325C460.385 421.678 457.686 464.488 457.686 510.156V511.482H483.38L483.697 510.616C491.146 490.307 500.887 458.605 505.897 429.484C508.403 414.931 509.738 400.957 508.99 389.349C508.246 377.81 505.424 368.271 499.273 362.985C495.563 359.797 491.971 358.145 488.508 358.142C485.012 358.14 481.915 359.817 479.226 362.71C473.924 368.412 469.836 379.21 466.693 393.325Z" fill="#1B1E27"/>
<path d="M523.761 430.688C539.352 449.291 506.398 490.921 488.096 511.102H474.487C483.404 472.787 500.768 403.254 523.761 430.688Z" fill="#1B1E27"/>
<path d="M129.314 285.301L127.22 305.072C129.258 307.404 135.443 311.943 143.883 311.436C152.323 310.928 158.473 305.648 160.493 303.07L156.907 283.644C167.457 283.01 169.219 271.445 169.407 260.793C169.595 250.142 165.047 214.403 136.409 225.946C113.497 235.18 122.133 269.364 129.314 285.301Z" fill="white"/>
<path fill-rule="evenodd" clip-rule="evenodd" d="M153.16 226.239C149.105 224.514 143.821 224.382 136.897 227.172C126.186 231.489 122.702 241.63 122.891 253.088C123.08 264.541 126.966 276.888 130.512 284.757L130.659 285.083L128.591 304.61C130.766 306.81 136.348 310.565 143.806 310.117C151.297 309.666 156.903 305.204 159.089 302.703L155.343 282.414L156.829 282.324C159.215 282.181 161.037 281.429 162.459 280.276C163.896 279.11 164.997 277.477 165.83 275.467C167.51 271.412 168 266.075 168.093 260.771C168.185 255.557 167.104 244.215 162.559 235.669C160.297 231.418 157.241 227.975 153.16 226.239ZM164.877 234.423C169.718 243.525 170.817 255.378 170.721 260.815C170.627 266.161 170.141 271.933 168.256 276.481C167.305 278.775 165.976 280.817 164.109 282.331C162.559 283.589 160.686 284.442 158.457 284.801L161.894 303.417L161.525 303.888C159.344 306.671 152.877 312.218 143.961 312.754C135.028 313.291 128.473 308.508 126.233 305.943L125.853 305.508L127.97 285.518C124.374 277.436 120.457 264.904 120.263 253.134C120.067 241.206 123.721 229.638 135.92 224.721C143.316 221.74 149.34 221.745 154.186 223.806C159.006 225.857 162.445 229.85 164.877 234.423Z" fill="#1B1E27"/>
<path d="M151.263 270.88L148.785 284.124C136.758 287.302 132.702 287.545 127.69 285.393C122.678 283.239 114.747 259.164 113.215 246.979C111.684 234.797 121.992 230.085 127.528 227.297C159.878 195.89 177.353 216.117 176.354 226.816C175.555 235.376 163.074 240.982 156.933 242.715C156.171 248.217 154.333 259.402 153.073 260.133C151.498 261.046 148.489 251.407 144.004 258.223C140.417 263.677 147.349 268.933 151.263 270.88Z" fill="#1B1E27"/>
<path d="M301.316 174.052V230.862C301.316 231.876 302.405 232.512 303.281 232.008L317.698 223.723C318.116 223.481 318.371 223.029 318.358 222.543L316.828 161.741C316.8 160.598 315.438 160.029 314.613 160.816L301.726 173.093C301.464 173.343 301.316 173.69 301.316 174.052Z" fill="white"/>
<path fill-rule="evenodd" clip-rule="evenodd" d="M313.709 159.857C315.359 158.283 318.083 159.421 318.142 161.708L319.671 222.51C319.697 223.482 319.189 224.387 318.349 224.869L303.932 233.156C302.181 234.163 300.003 232.89 300.003 230.861V174.052C300.003 173.327 300.298 172.633 300.822 172.134L313.709 159.857ZM315.515 161.775L302.63 174.052V230.861L317.046 222.576L315.515 161.775Z" fill="#1B1E27"/>
<path d="M311.879 215.978C310.578 219.899 304.838 228.507 302.128 232.32L316.754 243.762C317.838 241.582 320.978 235.589 324.88 229.051C329.754 220.88 331.379 218.429 330.567 198C329.916 181.656 321.9 175.119 317.566 174.301V198.816C317.024 197.456 315.779 191.462 311.879 194.731C307.003 198.816 313.504 211.074 311.879 215.978Z" fill="white"/>
<path fill-rule="evenodd" clip-rule="evenodd" d="M316.252 172.709L317.808 173.003C322.955 173.973 331.214 181.233 331.879 197.947C332.284 208.162 332.092 214.034 331.139 218.405C330.2 222.704 328.532 225.498 326.218 229.374C326.148 229.493 326.077 229.612 326.005 229.731C322.124 236.238 318.998 242.202 317.929 244.352L317.213 245.793L300.328 232.584L301.059 231.554C302.401 229.663 304.498 226.582 306.418 223.491C308.365 220.356 310.039 217.349 310.633 215.56C310.928 214.669 310.886 213.273 310.581 211.374C310.396 210.217 310.143 209.018 309.876 207.759C309.709 206.965 309.535 206.145 309.371 205.3C308.963 203.194 308.627 200.986 308.739 199.01C308.851 197.026 309.425 195.067 311.038 193.715C312.175 192.764 313.368 192.278 314.573 192.498C315.251 192.623 315.805 192.951 316.252 193.351V172.709ZM318.879 176.127V198.816L316.347 199.307C316.263 199.098 316.175 198.823 316.091 198.565L316.078 198.526C315.984 198.236 315.882 197.923 315.762 197.595C315.52 196.926 315.238 196.278 314.903 195.789C314.556 195.285 314.279 195.131 314.101 195.098C313.957 195.072 313.533 195.063 312.719 195.745C311.894 196.436 311.452 197.542 311.362 199.159C311.271 200.783 311.546 202.713 311.949 204.794C312.094 205.539 312.257 206.316 312.422 207.097C312.701 208.417 312.983 209.748 313.176 210.952C313.48 212.859 313.643 214.834 313.124 216.396C312.418 218.528 310.572 221.787 308.645 224.889C307.012 227.52 305.256 230.14 303.925 232.052L316.307 241.738C317.766 238.909 320.498 233.829 323.752 228.373L323.89 228.142C326.26 224.171 327.727 221.71 328.572 217.838C329.446 213.834 329.661 208.267 329.254 198.051C328.7 184.145 322.736 177.938 318.879 176.127Z" fill="#1B1E27"/>
<path d="M76.3291 321.541C99.0793 298.007 126.705 298.659 152.705 298.659C165.679 299.427 194.553 299.983 206.252 296.061C220.878 291.157 243.628 282.986 250.941 276.448C258.252 269.911 287.503 228.235 295.629 225.784C303.754 223.331 324.879 240.493 324.879 246.213C324.879 251.933 295.784 318.941 283.519 331.199C271.253 343.457 233.066 370.423 226.565 374.51C227.977 383.051 230.943 405.5 231.519 426.956C232.432 449.686 233.191 492.851 230.292 510.16H49.4451C42.4104 485.073 32.6615 437.905 33.2663 426.956C34.0789 412.247 47.8914 350.959 76.3291 321.541Z" fill="white"/>
<path fill-rule="evenodd" clip-rule="evenodd" d="M303.107 228.351C300.027 227.016 297.563 226.58 296.006 227.049C295.282 227.267 294.12 228.013 292.536 229.394C290.996 230.736 289.196 232.551 287.212 234.711C283.245 239.03 278.621 244.644 274.003 250.413C271.696 253.293 269.394 256.208 267.181 259.013L266.961 259.29C264.827 261.994 262.775 264.59 260.889 266.948C257.017 271.779 253.743 275.711 251.814 277.437C249.861 279.182 246.952 280.979 243.533 282.755C240.097 284.541 236.071 286.345 231.836 288.09C223.366 291.579 213.99 294.859 206.668 297.313C200.607 299.345 190.276 300.184 179.989 300.439C169.664 300.696 159.186 300.366 152.666 299.981C152.038 299.981 151.409 299.981 150.779 299.979C125.292 299.966 99.0312 299.95 77.271 322.461C63.257 336.959 52.7709 359.412 45.6806 380.193C38.5924 400.968 34.9749 419.841 34.5778 427.029C34.4352 429.612 34.9082 434.485 35.8492 440.854C36.7837 447.177 38.161 454.861 39.779 462.997C42.9332 478.857 46.9918 496.386 50.4413 508.84H229.172C230.47 500.153 230.965 485.732 231.022 470.585C231.079 454.813 230.663 438.359 230.206 427.009L230.204 426.992C229.632 405.614 226.675 383.227 225.269 374.726L225.126 373.857L225.869 373.389C229.075 371.375 240.213 363.636 252.102 354.854C264.007 346.06 276.542 336.31 282.594 330.262C285.507 327.349 289.544 321.026 294.006 312.913C298.439 304.854 303.211 295.179 307.608 285.696C312.002 276.214 316.014 266.941 318.923 259.688C320.379 256.06 321.554 252.949 322.362 250.576C322.768 249.388 323.076 248.4 323.281 247.632C323.497 246.822 323.565 246.376 323.565 246.213C323.565 245.855 323.38 245.212 322.824 244.264C322.289 243.351 321.49 242.291 320.47 241.142C318.435 238.848 315.61 236.302 312.517 233.994C309.425 231.686 306.11 229.653 303.107 228.351ZM325.087 242.92C325.717 243.996 326.192 245.14 326.192 246.213C326.192 246.765 326.033 247.513 325.818 248.318C325.591 249.166 325.261 250.217 324.847 251.432C324.018 253.867 322.823 257.026 321.36 260.676C318.43 267.978 314.4 277.295 309.989 286.812C305.578 296.329 300.777 306.062 296.305 314.193C291.861 322.271 287.663 328.92 284.444 332.136C278.23 338.345 265.538 348.209 253.658 356.983C242.534 365.2 232.014 372.542 228.001 375.155C229.466 384.309 232.272 406.067 232.832 426.91C233.288 438.289 233.706 454.78 233.647 470.595C233.591 486.381 233.057 501.604 231.589 510.38L231.403 511.482H48.451L48.1811 510.519C44.652 497.933 40.4485 479.835 37.2031 463.514C35.5801 455.354 34.1939 447.625 33.2508 441.241C32.314 434.901 31.7953 429.774 31.955 426.882C32.3705 419.362 36.0655 400.235 43.1961 379.335C50.3248 358.441 60.9639 335.54 75.3876 320.619C97.9325 297.297 125.222 297.319 150.532 297.337C151.258 297.337 151.982 297.339 152.705 297.339H152.743L152.782 297.341C159.24 297.722 169.664 298.052 179.924 297.797C190.241 297.543 200.198 296.698 205.838 294.807C213.142 292.358 222.451 289.102 230.841 285.644C235.035 283.917 238.984 282.146 242.326 280.408C245.689 278.661 248.364 276.984 250.069 275.46C251.796 273.916 254.92 270.188 258.843 265.291C260.724 262.94 262.77 260.35 264.908 257.642L265.122 257.371C267.337 254.566 269.643 251.645 271.957 248.756C276.58 242.981 281.25 237.307 285.281 232.918C287.296 230.725 289.172 228.831 290.816 227.397C292.415 226.004 293.944 224.913 295.251 224.517C297.757 223.762 300.98 224.552 304.146 225.924C307.39 227.33 310.88 229.484 314.083 231.873C317.288 234.263 320.252 236.927 322.43 239.384C323.519 240.608 324.434 241.809 325.087 242.92Z" fill="#1B1E27"/>
<path d="M266.378 345.908C274.179 317.143 290.754 309.408 298.065 309.135C295.357 314.039 288.966 325.151 285.065 330.381C281.166 335.612 270.983 342.912 266.378 345.908ZM38.1407 461.278C47.2408 431.858 41.9324 410.34 38.1407 403.258C36.7866 407.071 33.9156 417.149 33.2657 426.956C32.6156 436.762 36.2448 453.922 38.1407 461.278ZM61.703 377.107C52.2854 417.782 52.822 475.589 54.8627 510.16H60.7119C56.9322 437.228 59.6911 391.527 61.703 377.107Z" fill="#1B1E27"/>
</g>
<defs>
<clipPath id="clip0_10_2">
<rect width="550" height="550" fill="white"/>
</clipPath>
</defs>
</svg>
